<svg width="24" height="24" viewBox="-2 -2 24 24" fill="none" xmlns="http://www.w3.org/2000/svg">
<circle cx="10" cy="10" r="9.5" stroke="#959599"/>
<circle cx="10" cy="6" r="2" fill="#959599"/>
<path d="M15 14C15 13.3434 14.8707 12.6932 14.6194 12.0866C14.3681 11.48 13.9998 10.9288 13.5355 10.4645C13.0712 10.0002 12.52 9.63188 11.9134 9.3806C11.3068 9.12933 10.6566 9 10 9C9.34339 9 8.69321 9.12933 8.08658 9.3806C7.47995 9.63188 6.92876 10.0002 6.46447 10.4645C6.00017 10.9288 5.63188 11.48 5.3806 12.0866C5.12933 12.6932 5 13.3434 5 14L10 14H15Z" fill="#959599"/>
</svg>
