<svg width="24" height="24" viewBox="-2 -1.5 24 24" fill="none" xmlns="http://www.w3.org/2000/svg">
<g clip-path="url(#clip0_2446_14006)">
<path d="M0.500001 10.5C0.500001 5.2533 4.75329 1 10 1C15.2467 1 19.5 5.25329 19.5 10.5C19.5 15.7467 15.2467 20 10 20C4.7533 20 0.500002 15.7467 0.500001 10.5Z" stroke="#959599"/>
<path fill-rule="evenodd" clip-rule="evenodd" d="M5 7.5C5 6.94772 5.44772 6.5 6 6.5H14C14.5523 6.5 15 6.94772 15 7.5V13.5C15 14.0523 14.5523 14.5 14 14.5H6C5.44772 14.5 5 14.0523 5 13.5V7.5ZM6 7.5H8V8.5H6V7.5ZM8 12.5H6V13.5H8V12.5ZM9 7.5H11V8.5H9V7.5ZM11 12.5H9V13.5H11V12.5ZM12 7.5H14V8.5H12V7.5ZM14 12.5H12V13.5H14V12.5Z" fill="#959599"/>
</g>
<defs>
<clipPath id="clip0_2446_14006">
<rect width="20" height="20" fill="white" transform="translate(0 0.5)"/>
</clipPath>
</defs>
</svg>
