<svg width="24" height="24" viewBox="-2 -2 24 24" fill="none" xmlns="http://www.w3.org/2000/svg">
<path d="M0.500003 10C0.500003 4.7533 4.7533 0.500003 10 0.500003C15.2467 0.500002 19.5 4.7533 19.5 10C19.5 15.2467 15.2467 19.5 10 19.5C4.7533 19.5 0.500003 15.2467 0.500003 10Z" stroke="#959599"/>
<path d="M8 6C8 4.89543 8.89543 4 10 4C11.1046 4 12 4.89543 12 6V9C12 10.1046 11.1046 11 10 11C8.89543 11 8 10.1046 8 9V6Z" fill="#959599"/>
<path fill-rule="evenodd" clip-rule="evenodd" d="M6 8V9C6 11.2091 7.79086 13 10 13C12.2091 13 14 11.2091 14 9V8H15V9C15 11.7614 12.7614 14 10 14C7.23858 14 5 11.7614 5 9V8H6Z" fill="#959599"/>
<path d="M9 13H11V16H9V13Z" fill="#959599"/>
</svg>
