<svg width="24" height="24" viewBox="-2 -1.5 24 24" fill="none" xmlns="http://www.w3.org/2000/svg">
<g clip-path="url(#clip0_2446_16815)">
<path d="M0.500001 10.5C0.500001 5.2533 4.75329 1 10 1C15.2467 1 19.5 5.25329 19.5 10.5C19.5 15.7467 15.2467 20 10 20C4.7533 20 0.500002 15.7467 0.500001 10.5Z" stroke="#959599"/>
<path fill-rule="evenodd" clip-rule="evenodd" d="M12.5406 10.5C12.5406 12.7091 10.7415 14.5 8.52226 14.5C6.30298 14.5 4.50391 12.7091 4.50391 10.5C4.50391 8.29086 6.30298 6.5 8.52226 6.5C10.7415 6.5 12.5406 8.29086 12.5406 10.5ZM12.5406 7.67488V6.62988C14.2735 7.07488 15.5544 8.63488 15.5544 10.4999C15.5544 12.3649 14.2735 13.9249 12.5406 14.3699V13.3249C13.7109 12.9149 14.5498 11.8049 14.5498 10.4999C14.5498 9.19488 13.7109 8.08488 12.5406 7.67488Z" fill="#959599"/>
</g>
<defs>
<clipPath id="clip0_2446_16815">
<rect width="20" height="20" fill="white" transform="translate(0 0.5)"/>
</clipPath>
</defs>
</svg>
