<svg viewBox="-2 -2 24 24" xmlns="http://www.w3.org/2000/svg">
<g clip-path="url(#clip0_5648_136845)">
<path fill-rule="evenodd" clip-rule="evenodd" d="M1 0H13V6H19V20H1V0ZM6 16H3V18H6V16ZM3 12H6V14H3V12ZM6 8H3V10H6V8ZM3 4H6V6H3V4ZM11 16H8V18H11V16ZM8 12H11V14H8V12ZM11 8H8V10H11V8ZM8 4H11V6H8V4ZM16 16H13V18H16V16ZM13 12H16V14H13V12ZM16 8H13V10H16V8Z" fill="currentColor"/>
<path d="M14 0L19 5H14V0Z" fill="currentColor"/>
</g>
<defs>
<clipPath id="clip0_5648_136845">
<rect width="20" height="20" fill="currentColor"/>
</clipPath>
</defs>
</svg>
