<svg xmlns="http://www.w3.org/2000/svg" viewBox="-5.0585 -2 24 24" fill="currentColor"><path fill-rule="evenodd" clip-rule="evenodd" d="M3.743 7.484a2.517 2.517 0 1 0 0 5.034h2.586V7.484zm6.329 -1.224h0.068a2.517 2.517 0 1 0 0 -5.034H7.555v5.034zm2.12 0.612A3.742 3.742 0 0 0 10.14 0H3.743A3.742 3.742 0 0 0 1.69 6.87C0.672 7.54 0 8.692 0 10.001s0.672 2.46 1.69 3.129A3.74 3.74 0 0 0 0 16.259c0 2.071 1.697 3.741 3.76 3.741 2.082 0 3.794 -1.686 3.794 -3.775v-3.456a3.73 3.73 0 0 0 2.518 0.973h0.068a3.742 3.742 0 0 0 2.053 -6.87m-2.052 0.612h-0.068a2.517 2.517 0 1 0 0 5.034h0.068a2.517 2.517 0 1 0 0 -5.034m-8.917 8.776a2.517 2.517 0 0 1 2.518 -2.517h2.586v2.483c0 1.405 -1.155 2.551 -2.569 2.551 -1.395 0 -2.535 -1.131 -2.535 -2.517m5.104 -10.001H3.743a2.517 2.517 0 1 1 0 -5.034h2.586z"/></svg>