<svg viewBox="-2 -2 24 24" xmlns="http://www.w3.org/2000/svg">
<path fill-rule="evenodd" clip-rule="evenodd" d="M1.74999 10.0605C1.74999 5.50416 5.44361 1.81054 9.99994 1.81054C14.5563 1.81054 18.25 5.50417 18.25 10.0605C18.25 14.6168 14.5563 18.3104 9.99994 18.3104C5.44361 18.3104 1.74999 14.6168 1.74999 10.0605ZM9.99994 0.310547C4.61519 0.310547 0.25 4.67573 0.25 10.0605C0.25 15.4452 4.61519 19.8104 9.99994 19.8104C15.3847 19.8104 19.75 15.4452 19.75 10.0605C19.75 4.67572 15.3847 0.310547 9.99994 0.310547ZM9.68821 4.12578C9.73003 4.10848 9.77482 4.09958 9.82007 4.09961C9.91142 4.09963 9.99902 4.13593 10.0636 4.20052C10.1282 4.26512 10.1645 4.35272 10.1645 4.44407C10.1645 4.53542 10.1282 4.62304 10.0636 4.68764C9.99905 4.75224 9.91143 4.78853 9.82007 4.78855C9.77482 4.78858 9.73 4.7797 9.68818 4.7624C9.64636 4.7451 9.60836 4.71972 9.57635 4.68773C9.54434 4.65574 9.51894 4.61776 9.50161 4.57595C9.48428 4.53414 9.47537 4.48932 9.47536 4.44407C9.47537 4.39881 9.48431 4.354 9.50164 4.3122C9.51897 4.27039 9.54437 4.23242 9.57638 4.20043C9.60839 4.16845 9.64639 4.14308 9.68821 4.12578ZM9.20321 5.5432C9.30774 5.49991 9.4198 5.47764 9.53294 5.47766V5.47793C9.64605 5.47795 9.75805 5.50025 9.86255 5.54355C9.96704 5.58685 10.062 5.6503 10.142 5.7303C10.2219 5.81029 10.2854 5.90527 10.3287 6.00978C10.3719 6.11428 10.3942 6.22628 10.3942 6.3394C10.3938 6.3976 10.3876 6.45562 10.3755 6.51256C10.2207 6.55357 10.0805 6.63692 9.97044 6.75324C9.8604 6.86955 9.78497 7.01422 9.7526 7.17103C9.68095 7.19023 9.60712 7.20011 9.53294 7.20039C9.41982 7.20041 9.30779 7.17815 9.20327 7.13488C9.09876 7.09161 9.00379 7.02818 8.9238 6.94821C8.8438 6.86824 8.78035 6.77329 8.73705 6.66879C8.69374 6.56429 8.67143 6.45229 8.67141 6.33917C8.67139 6.22603 8.69367 6.11399 8.73695 6.00946C8.78024 5.90492 8.8437 5.80994 8.92371 5.72994C9.00371 5.64993 9.09868 5.58649 9.20321 5.5432ZM2.96729 9.46395C3.05988 8.09205 3.55665 6.77829 4.39494 5.68836L4.39469 5.68907C4.92281 5.70212 5.42744 5.90997 5.81157 6.27263C5.83329 6.17762 5.88661 6.09279 5.96278 6.03199C6.03895 5.9712 6.13348 5.93805 6.23093 5.93794C6.34515 5.93795 6.45469 5.98332 6.53545 6.06408C6.6162 6.14485 6.66156 6.2544 6.66156 6.36861C6.66154 6.48281 6.61617 6.59233 6.53542 6.67308C6.45466 6.75382 6.34514 6.7992 6.23093 6.79921L6.21943 6.79869C6.39345 7.11405 6.4851 7.46821 6.48589 7.8284C6.48577 8.18378 6.39718 8.53356 6.22812 8.84616C6.45299 8.91491 6.65799 9.0368 6.82579 9.20153C6.99359 9.36626 7.11925 9.56898 7.19215 9.79254C7.01419 9.84529 6.85806 9.95412 6.74696 10.1028C6.63587 10.2515 6.57575 10.4321 6.57562 10.6177C6.57577 10.7379 6.6011 10.8568 6.64994 10.9666C6.69878 11.0764 6.77006 11.1748 6.85921 11.2554C6.72252 11.3987 6.55822 11.5127 6.37621 11.5906C6.19421 11.6686 5.99829 11.7088 5.80031 11.7088C5.41198 11.7088 5.03955 11.5545 4.76496 11.2799C4.49037 11.0053 4.33611 10.6329 4.33609 10.2446C4.33647 10.152 4.34562 10.0596 4.36345 9.96874H4.34481C3.84051 9.96796 3.35268 9.78919 2.96729 9.46395ZM14.542 6.06084C14.6236 6.01029 14.6896 5.93798 14.7324 5.85203L14.7325 5.85222C14.9019 5.86033 15.0617 5.93331 15.1787 6.05603C15.2958 6.17875 15.3612 6.34181 15.3613 6.51141C15.3613 6.59815 15.3442 6.68405 15.311 6.7642C15.2778 6.84434 15.2292 6.91714 15.1679 6.97848C15.1065 7.03982 15.0337 7.08847 14.9536 7.12165C14.8734 7.15484 14.7875 7.17192 14.7008 7.17191C14.6141 7.17189 14.5282 7.1548 14.4481 7.12159C14.368 7.08839 14.2952 7.03974 14.2339 6.9784C14.1726 6.91707 14.1239 6.84426 14.0907 6.76414C14.0576 6.68401 14.0405 6.59813 14.0405 6.51141C14.0409 6.37345 14.0844 6.23907 14.165 6.12713C14.1996 6.13441 14.2348 6.13813 14.2701 6.13824C14.3662 6.1382 14.4603 6.1114 14.542 6.06084ZM4.19362 7.86147C4.14 7.81903 4.07365 7.79587 4.00527 7.79573L4.00536 7.79629C3.96536 7.79629 3.92574 7.80416 3.88878 7.81947C3.85183 7.83477 3.81825 7.85721 3.78997 7.88549C3.76169 7.91377 3.73925 7.94734 3.72395 7.9843C3.70864 8.02126 3.70078 8.06087 3.70079 8.10086C3.70079 8.14086 3.70867 8.18045 3.72398 8.2174C3.73929 8.25434 3.76172 8.28792 3.79 8.31619C3.81828 8.34447 3.85186 8.3669 3.88881 8.3822C3.92576 8.3975 3.96537 8.40537 4.00536 8.40536C4.05604 8.40519 4.10586 8.39237 4.15034 8.36806C4.14846 8.38708 4.14751 8.40617 4.14749 8.42528C4.14752 8.58139 4.20954 8.73108 4.31992 8.84147C4.43031 8.95185 4.58 9.01388 4.73611 9.01391C4.81343 9.01394 4.89002 8.99873 4.96146 8.96916C5.0329 8.93958 5.09782 8.89623 5.15251 8.84157C5.20719 8.78691 5.25056 8.72201 5.28017 8.65058C5.30977 8.57916 5.32501 8.5026 5.32503 8.42528C5.32505 8.34794 5.30984 8.27135 5.28026 8.19989C5.25067 8.12843 5.20729 8.0635 5.1526 8.00881C5.09791 7.95412 5.03298 7.91073 4.96152 7.88115C4.89006 7.85156 4.81345 7.83635 4.73611 7.83637C4.6541 7.83651 4.57302 7.85376 4.49808 7.88705C4.42313 7.92034 4.35596 7.96892 4.30088 8.02968C4.28503 7.96316 4.24725 7.90391 4.19362 7.86147ZM3.22969 11.8867C3.42971 11.7357 3.67332 11.6537 3.92393 11.6531C4.07592 11.6531 4.22642 11.683 4.36684 11.7412C4.50727 11.7993 4.63487 11.8846 4.74234 11.992C4.84982 12.0995 4.93506 12.2271 4.99321 12.3675C5.05137 12.508 5.08129 12.6585 5.08128 12.8105C5.08096 13.0659 4.99614 13.3141 4.84003 13.5163C4.68393 13.7184 4.46532 13.8633 4.21827 13.9282C3.77934 13.3063 3.44539 12.6167 3.22969 11.8867ZM6.61906 12.6062C6.72354 12.563 6.83552 12.5407 6.94861 12.5407C7.06172 12.5407 7.17374 12.563 7.27824 12.6063C7.38274 12.6496 7.47768 12.7131 7.55766 12.7931C7.63763 12.8731 7.70105 12.968 7.74432 13.0726C7.78759 13.1771 7.80985 13.2891 7.80983 13.4022C7.80949 13.4375 7.80697 13.4728 7.80229 13.5079C7.59756 13.5438 7.40561 13.632 7.24503 13.764C7.08446 13.896 6.96073 14.0673 6.88585 14.2612C6.66887 14.2453 6.46592 14.1479 6.31779 13.9886C6.16965 13.8292 6.08728 13.6197 6.08726 13.4022C6.08724 13.289 6.10951 13.177 6.1528 13.0725C6.19609 12.9679 6.25955 12.873 6.33955 12.793C6.41955 12.713 6.51453 12.6495 6.61906 12.6062ZM9.21002 13.9436C9.27369 13.9085 9.3452 13.8901 9.4179 13.8901L9.41793 13.8904C9.4745 13.8904 9.53051 13.9015 9.58277 13.9232C9.63502 13.9448 9.68249 13.9766 9.72248 14.0166C9.76246 14.0566 9.79418 14.1041 9.81581 14.1564C9.83743 14.2086 9.84855 14.2646 9.84853 14.3212C9.84852 14.4354 9.80313 14.5449 9.72238 14.6257C9.64164 14.7064 9.53214 14.7518 9.41793 14.7518C9.34776 14.7517 9.27867 14.7345 9.21668 14.7016L9.21692 14.6941C9.2165 14.4821 9.16024 14.2741 9.05382 14.0909C9.09263 14.0294 9.14636 13.9787 9.21002 13.9436Z" fill="currentColor"/>
</svg>
