<svg viewBox="-2 -2 24 24" xmlns="http://www.w3.org/2000/svg">
<path fill-rule="evenodd" clip-rule="evenodd" d="M12.6219 6.81027C11.0272 4.94766 8.28916 3.65521 3.62796 3.75545L3.5957 2.25576C8.55005 2.14921 11.786 3.52744 13.7614 5.8347C15.7141 8.11555 16.3098 11.1623 16.3098 14.137H14.8097C14.8097 11.3217 14.2392 8.69929 12.6219 6.81027Z" fill="currentColor"/>
<path fill-rule="evenodd" clip-rule="evenodd" d="M15.2946 14.9361L14.7656 14.0368L15.6297 13.5078L16.194 14.4248L15.2946 14.9361Z" fill="currentColor"/>
<path fill-rule="evenodd" clip-rule="evenodd" d="M16.5112 14.5259L15.8555 13.1902L19.2229 11.1719L20 12.4347L16.5112 14.5259Z" fill="currentColor"/>
<path fill-rule="evenodd" clip-rule="evenodd" d="M11.685 17.3228L11.0293 15.9871L14.3968 13.9688L15.1739 15.2316L11.685 17.3228Z" fill="currentColor"/>
<path fill-rule="evenodd" clip-rule="evenodd" d="M4.03841 8.50781C4.03842 8.50781 4.03843 8.50781 4.03845 8.50781C4.03854 8.50781 4.03863 8.50781 4.03872 8.50781M4.03841 8.50781C4.03837 8.50781 4.03834 8.50781 4.03831 8.50781H4.03841ZM4.03831 8.50781C3.80068 8.50781 3.56534 8.5546 3.34576 8.64555C3.12615 8.7365 2.92661 8.86984 2.75855 9.03791C2.59046 9.206 2.45716 9.40556 2.36622 9.62515C2.27526 9.84477 2.22849 10.0801 2.22852 10.3178L2.22852 10.318C2.22877 10.7978 2.41957 11.258 2.75898 11.5972C3.09841 11.9364 3.55864 12.1269 4.03845 12.1268L4.0395 12.1268C4.33661 12.1262 4.62897 12.0524 4.89079 11.912C5.12018 11.789 5.21683 11.5106 5.113 11.2719C5.06536 11.1624 5.04048 11.0443 5.03987 10.9249C5.04021 10.7729 5.07984 10.6237 5.15494 10.4915C5.23024 10.359 5.33861 10.2483 5.46944 10.1702C5.69292 10.0369 5.77674 9.7544 5.66215 9.52074C5.51324 9.21708 5.28222 8.9612 4.99526 8.78215C4.7085 8.60323 4.37741 8.50823 4.03949 8.50781M4.03809 9.50781C4.18939 9.50797 4.33759 9.55049 4.4659 9.63055C4.48525 9.64262 4.50404 9.65548 4.52222 9.66908C4.43211 9.76929 4.35267 9.87929 4.28554 9.99739C4.12479 10.2802 4.04016 10.5999 4.03987 10.9252L4.03987 10.9275C4.04012 10.9942 4.04392 11.0607 4.0512 11.1267C4.04675 11.1268 4.04229 11.1268 4.03784 11.1268C3.82329 11.1267 3.61758 11.0415 3.46587 10.8899C3.31406 10.7381 3.22868 10.5323 3.22852 10.3177M3.22852 10.3175C3.22853 10.2112 3.24946 10.1059 3.29012 10.0078C3.33082 9.90949 3.39048 9.82019 3.46567 9.745C3.54088 9.66979 3.63016 9.61013 3.72841 9.56944C3.82657 9.52878 3.93181 9.50784 4.03809 9.50781" fill="currentColor"/>
<path fill-rule="evenodd" clip-rule="evenodd" d="M6.17567 13.7422C6.11424 13.7422 6.06445 13.792 6.06445 13.8534C6.06445 13.9148 6.11424 13.9646 6.17567 13.9646C6.2371 13.9646 6.28689 13.9148 6.28689 13.8534C6.28689 13.792 6.2371 13.7422 6.17567 13.7422ZM5.06445 13.8534C5.06445 13.2397 5.56196 12.7422 6.17567 12.7422C6.78938 12.7422 7.28689 13.2397 7.28689 13.8534C7.28689 14.4671 6.78938 14.9646 6.17567 14.9646C5.56196 14.9646 5.06445 14.4671 5.06445 13.8534Z" fill="currentColor"/>
<path fill-rule="evenodd" clip-rule="evenodd" d="M5.76455 7.14066C3.54739 7.14066 1.75004 8.93802 1.75004 11.1552C1.75004 13.3723 3.54739 15.1697 5.76455 15.1697C7.98172 15.1697 9.77912 13.3723 9.77912 11.1552C9.77912 8.93803 7.98172 7.14066 5.76455 7.14066ZM0.25 11.1552C0.25 8.10957 2.71894 5.64062 5.76455 5.64062C8.81014 5.64062 11.2792 8.10956 11.2792 11.1552C11.2792 14.2008 8.81014 16.6697 5.76455 16.6697C2.71894 16.6697 0.25 14.2008 0.25 11.1552Z" fill="currentColor"/>
<path d="M6.23863 9.12766C6.49717 9.12766 6.70676 8.91805 6.70676 8.65951C6.70676 8.40097 6.49717 8.19141 6.23863 8.19141C5.98009 8.19141 5.77051 8.40097 5.77051 8.65951C5.77051 8.91805 5.98009 9.12766 6.23863 9.12766Z" fill="currentColor"/>
<path d="M2.20194 12.109C2.35823 12.109 2.48494 11.9823 2.48494 11.826C2.48494 11.6697 2.35823 11.543 2.20194 11.543C2.04565 11.543 1.91895 11.6697 1.91895 11.826C1.91895 11.9823 2.04565 12.109 2.20194 12.109Z" fill="currentColor"/>
<path d="M8.93024 12.4582C9.13765 12.4582 9.30578 12.29 9.30578 12.0826C9.30578 11.8752 9.13765 11.707 8.93024 11.707C8.72282 11.707 8.55469 11.8752 8.55469 12.0826C8.55469 12.29 8.72282 12.4582 8.93024 12.4582Z" fill="currentColor"/>
</svg>
