<svg width="24" height="24" viewBox="-2 -2 24 24" fill="none" xmlns="http://www.w3.org/2000/svg">
<path fill-rule="evenodd" clip-rule="evenodd" d="M18.9066 15.98C19.6355 15.26 20 14.32 20 13.16C20 13.1315 19.9998 13.1031 19.9993 13.0748C19.9998 13.0499 20 13.025 20 13C20 10.7909 18.2091 9 16 9C15.7263 9 15.459 9.02749 15.2007 9.07987C15.4119 8.11645 15.7648 7.2565 16.2595 6.5C16.8733 5.62 17.679 4.82 18.6764 4.1L17.3529 2C15.5114 3.04 14.0728 4.46 13.037 6.26C12.0395 8.02 11.5408 9.82 11.5408 11.66C11.5408 13.38 11.9628 14.7 12.8068 15.62C13.4452 16.2857 14.2042 16.7105 15.0836 16.8945C15.3779 16.9635 15.6847 17 16 17C16.0219 17 16.0438 16.9998 16.0656 16.9995C16.0918 16.9998 16.1181 17 16.1444 17C17.257 17 18.1777 16.66 18.9066 15.98Z" fill="white"/>
<path fill-rule="evenodd" clip-rule="evenodd" d="M7.36585 15.98C8.09476 15.26 8.45921 14.32 8.45921 13.16C8.45921 13.1315 8.45899 13.1031 8.45854 13.0748C8.459 13.0499 8.45923 13.025 8.45923 13C8.45923 10.7909 6.66837 9 4.45923 9C4.1855 9 3.9182 9.02749 3.65993 9.07987C3.87111 8.11645 4.22405 7.2565 4.71874 6.5C5.33256 5.62 6.13821 4.82 7.13566 4.1L5.81211 2C3.97065 3.04 2.53201 4.46 1.49619 6.26C0.498727 8.02 0 9.82 0 11.66C0 13.38 0.422 14.7 1.266 15.62C1.90445 16.2857 2.6634 16.7105 3.54287 16.8945C3.83714 16.9635 4.14392 17 4.45923 17C4.48115 17 4.50303 16.9998 4.52487 16.9995C4.55104 16.9998 4.5773 17 4.60365 17C5.7162 17 6.63693 16.66 7.36585 15.98Z" fill="white"/>
</svg>
