<svg viewBox="-2 -2 24 24" xmlns="http://www.w3.org/2000/svg">
<path d="M8.97624 13.786C8.97624 14.3898 8.97624 15.7986 8.97624 16.4024C10.0787 15.4967 11.8827 13.9873 12.9852 13.0816C11.8827 12.176 10.0787 10.6666 8.97624 9.76091V12.3772C7.87379 12.3772 6.77133 12.2766 5.86932 12.0754C5.56865 8.75464 6.06977 5.0314 8.07423 2.5157V2.41507C8.07423 2.41507 7.77356 0.805024 7.77356 0.704396C5.86932 2.11319 4.96731 4.42763 4.56642 6.8427C2.16106 7.24522 -1.94809 9.3584 1.05861 11.8741C3.1633 13.3835 6.27022 13.6854 8.97624 13.786ZM3.66441 8.65401C3.86486 8.55338 4.06531 8.55338 4.26575 8.45275C4.16553 9.15715 4.16553 9.86154 4.16553 10.5659C4.16553 10.9685 4.16553 11.2703 4.26575 11.6728C3.26352 11.371 1.65995 10.8678 1.4595 10.0628C1.65995 9.3584 2.66218 8.95589 3.66441 8.65401Z" fill="currentColor"/>
<path d="M18.9986 8.2515C18.3972 7.84898 17.6957 7.44647 16.7937 7.14459C16.8939 7.64773 16.8939 8.2515 16.9941 8.85526C18.9986 9.76092 18.9986 10.3647 16.9941 11.1697C16.9941 11.7735 16.8939 12.2766 16.7937 12.8804C18.9986 12.2766 21.4039 10.2641 18.9986 8.2515Z" fill="currentColor"/>
<path d="M15.4908 6.8427C15.0899 4.93077 14.4885 3.32072 13.3861 1.8113L14.8894 0C13.5865 0 10.9807 0 9.67781 0C9.97848 1.50942 10.3794 3.62261 10.5798 5.13203L12.3838 3.01884C13.0854 4.02512 13.5865 5.13203 13.8872 6.54082C11.9829 6.23894 9.57758 6.23894 7.47289 6.33956C7.37267 6.8427 7.17222 7.34584 7.17222 7.84898C9.27691 7.64773 12.0832 7.64773 14.1879 8.05024C14.4885 10.7672 14.1879 13.786 12.8849 16.2011C10.7803 20.3269 7.67334 18.4149 6.47066 14.7923C5.86932 14.6917 5.36821 14.5911 4.76687 14.4904C5.96955 19.7231 11.0809 22.5407 14.0876 16.9055C15.7914 13.9873 16.0921 10.1634 15.4908 6.8427Z" fill="currentColor"/>
</svg>
