<svg viewBox="-2 -2 24 24" xmlns="http://www.w3.org/2000/svg">
<path d="M20 17.7376L14.6738 12.4118C15.5121 11.1462 15.9997 9.63138 15.9997 7.99998C15.9997 3.58119 12.4182 0 7.99983 0C3.58148 0 0 3.58199 0 8.00078C0 12.418 3.58148 16.0008 7.99983 16.0008C9.63042 16.0008 11.1469 15.5117 12.412 14.6742L17.7374 20L20 17.7376ZM2.2666 8.00158C2.2666 4.83519 4.834 2.2696 7.99985 2.2696C11.1665 2.2696 13.7339 4.83519 13.7339 8.00158C13.7339 11.168 11.1665 13.7352 7.99985 13.7352C4.834 13.7352 2.2666 11.168 2.2666 8.00158Z" fill="currentColor"/>
</svg>
