<svg viewBox="-2 -2 24 24" xmlns="http://www.w3.org/2000/svg">
<path fill-rule="evenodd" clip-rule="evenodd" d="M12.0001 0H8.0001L7.30242 3.48839C6.72916 3.71746 6.18691 4.0241 5.69175 4.40186L2.33984 3.26795L0.339844 6.73205L3.03976 9.10482C3.00779 9.4004 2.99495 9.69938 3.00196 10C2.99495 10.3006 3.00779 10.5996 3.03976 10.8952L0.339844 13.2679L2.33984 16.7321L5.69175 15.5981C6.18691 15.9759 6.72916 16.2825 7.30242 16.5116L8.0001 20H12.0001L12.6978 16.5116C13.271 16.2825 13.8133 15.9759 14.3085 15.5981L17.6604 16.732L19.6604 13.2679L16.9604 10.8952C16.9924 10.5996 17.0052 10.3006 16.9982 10C17.0052 9.69938 16.9924 9.4004 16.9604 9.10482L19.6604 6.73205L17.6604 3.26795L14.3085 4.40186C13.8133 4.0241 13.271 3.71746 12.6978 3.48839L12.0001 0ZM7.85868 7.85868C8.42524 7.29213 9.19899 6.98214 10 7.0008C10.801 6.98214 11.5748 7.29213 12.1413 7.85868C12.7079 8.42524 13.0179 9.19899 12.9992 10C13.0179 10.801 12.7079 11.5748 12.1413 12.1413C11.5748 12.7079 10.801 13.0179 10 12.9992C9.19899 13.0179 8.42524 12.7079 7.85868 12.1413C7.29213 11.5748 6.98214 10.801 7.0008 10C6.98214 9.19899 7.29213 8.42524 7.85868 7.85868Z" fill="currentColor"/>
</svg>
