<svg width="24" height="24" viewBox="-2 -2 24 24" fill="none" xmlns="http://www.w3.org/2000/svg">
<path d="M16 6C17.6569 6 19 4.65685 19 3C19 1.34315 17.6569 0 16 0C14.3431 0 13 1.34315 13 3C13 3.15663 13.012 3.31047 13.0351 3.46062L5.01621 7.77851C4.48355 7.29478 3.7762 7 3 7C1.34315 7 0 8.34315 0 10C0 11.6569 1.34315 13 3 13C3.77622 13 4.48358 12.7052 5.01624 12.2215L13.0351 16.5393C13.012 16.6895 13 16.8434 13 17C13 18.6569 14.3431 20 16 20C17.6569 20 19 18.6569 19 17C19 15.3431 17.6569 14 16 14C15.2238 14 14.5164 14.2948 13.9837 14.7786L5.96484 10.4607C5.98799 10.3105 6 10.1567 6 10C6 9.84331 5.98799 9.68943 5.96483 9.53922L13.9837 5.22139C14.5163 5.70517 15.2237 6 16 6Z" fill="white"/>
</svg>
