<svg viewBox="-2 -2 24 24" xmlns="http://www.w3.org/2000/svg">
<circle cx="10" cy="10" r="9.5" fill="none" stroke="currentColor"/>
<path d="M14.4728 9.47361C14.4728 9.01187 14.092 8.64248 13.616 8.64248C13.3168 8.64248 13.0448 8.80079 12.8952 9.03826V9.01187C12.8952 8.55013 12.5144 8.18074 12.0384 8.18074C11.7392 8.18074 11.4672 8.33905 11.3176 8.56332V8.53694C11.3176 8.0752 10.9368 7.7058 10.4608 7.7058C10.1616 7.7058 9.88963 7.86412 9.74004 8.08839V5.33113C9.74004 5.10686 9.64484 4.89578 9.49524 4.73747C9.33204 4.57916 9.11444 4.5 8.89684 4.5C8.42085 4.5 8.04005 4.86939 8.04005 5.33113V10.4499C8.04005 10.5026 8.01285 10.5422 7.97205 10.5554C7.93125 10.5686 7.87685 10.5686 7.84965 10.529L6.97926 9.69789C6.68006 9.42084 6.23126 9.36807 5.87766 9.59235C5.67367 9.72427 5.53767 9.93536 5.51047 10.1728C5.46967 10.4103 5.55127 10.6478 5.70087 10.8325L7.86325 13.3654C8.47524 14.0778 9.37284 14.5 10.3384 14.5H11.6848C12.4328 14.5 13.14 14.2098 13.6704 13.6953C14.2008 13.1807 14.5 12.4947 14.5 11.7691L14.4728 9.47361Z" fill="currentColor"/>
</svg>
