<svg viewBox="-2 -2 24 24" xmlns="http://www.w3.org/2000/svg">
<circle cx="10" cy="10" r="9.5" fill="none" stroke="currentColor"/>
<path d="M8 6C8 4.89543 8.89543 4 10 4C11.1046 4 12 4.89543 12 6V9C12 10.1046 11.1046 11 10 11C8.89543 11 8 10.1046 8 9V6Z" fill="currentColor"/>
<path fill-rule="evenodd" clip-rule="evenodd" d="M6 8V9C6 11.2091 7.79086 13 10 13C12.2091 13 14 11.2091 14 9V8H15V9C15 11.7614 12.7614 14 10 14C7.23858 14 5 11.7614 5 9V8H6Z" fill="currentColor"/>
<path d="M9 13H11V16H9V13Z" fill="currentColor"/>
</svg>
