<svg viewBox="-2 -2 24 24" xmlns="http://www.w3.org/2000/svg">
<circle cx="10" cy="10" r="9.5" fill="none" stroke="currentColor"/>
<path fill-rule="evenodd" clip-rule="evenodd" d="M9.99972 4L11.2616 8.1071C11.2804 8.16864 11.335 8.20985 11.3963 8.20985L15.5 8.20115L12.1745 10.7305L12.175 10.731C12.1253 10.7688 12.1043 10.8361 12.1237 10.8977L13.4004 15L10.0831 12.4563C10.0334 12.4185 9.96602 12.4185 9.91632 12.4563L6.60067 15L7.87745 10.8977H7.8769C7.89623 10.8361 7.87524 10.7688 7.82554 10.731L4.5 8.20173L8.60366 8.21043L8.60421 8.20985C8.66551 8.20985 8.72018 8.16864 8.73896 8.1071L9.99972 4Z" fill="currentColor"/>
</svg>
