<svg viewBox="-2 -2 24 24" xmlns="http://www.w3.org/2000/svg">
<path fill-rule="evenodd" clip-rule="evenodd" d="M10.1542 1.98629C5.73406 1.98629 2.15084 5.56951 2.15084 9.98965C2.15084 14.4098 5.73406 17.993 10.1542 17.993C14.5744 17.993 18.1577 14.4098 18.1577 9.98965C18.1577 5.56952 14.5744 1.98629 10.1542 1.98629ZM0.650879 9.98965C0.650879 4.7411 4.90566 0.486328 10.1542 0.486328C15.4027 0.486328 19.6576 4.74109 19.6576 9.98965C19.6576 15.2382 15.4027 19.493 10.1542 19.493C4.90566 19.493 0.650879 15.2382 0.650879 9.98965ZM10.7596 9.81075C10.6765 9.78541 10.634 9.67335 10.5915 9.56101C10.5506 9.45288 10.5095 9.3445 10.432 9.313C10.177 9.2092 10.6157 8.74372 10.6157 8.74372L10.4263 8.15796C10.4263 8.15796 10.6205 7.56709 10.5596 7.70939C10.4898 7.87214 10.3316 7.8367 10.1579 7.79777C10.0431 7.77204 9.92152 7.74479 9.81413 7.77223C9.71074 7.7986 9.72081 7.77814 9.74399 7.73099C9.76944 7.67925 9.81069 7.59537 9.73511 7.50599C9.6541 7.4102 9.43865 7.50533 9.25638 7.58581C9.08745 7.6604 8.94702 7.7224 8.96856 7.60815C9.01798 7.34588 9.25485 7.16777 9.48092 6.99778C9.54403 6.95033 9.6063 6.90351 9.66341 6.85566C9.78021 6.75796 10.0481 6.6092 10.0481 6.6092L10.7585 6.92685C10.7585 6.92685 10.598 6.60832 10.4924 6.46567C10.3971 6.33702 10.1646 6.11529 10.1646 6.11529L10.3629 5.85016C10.3629 5.85016 9.78339 6.12108 9.80328 5.74818C9.80763 5.6659 9.85961 5.58299 9.91016 5.50238C9.97924 5.3922 10.0456 5.28629 9.98413 5.19208C9.90616 5.07264 9.55801 5.14948 9.55801 5.14948L9.57781 4.74911C9.45854 4.74677 9.34756 4.7291 9.23657 4.71143C8.85776 4.65111 8.47893 4.59079 7.77066 5.13993L8.12557 5.53733C7.81669 5.74304 7.52544 5.6773 7.23415 5.61155C7.198 5.60338 7.16184 5.59522 7.12565 5.58758L7.31156 4.95331C7.15193 4.88855 7.09434 4.6661 7.04536 4.47695C6.99585 4.28574 6.95516 4.12856 6.82678 4.20267C6.82678 4.20267 6.81835 4.58797 6.69157 4.70741C6.54143 4.84868 6.0856 4.83144 6.0856 4.83144L5.91538 4.75394C5.27676 5.03914 5.01432 5.45866 4.70378 6.02253L4.36035 6.78102L3.78164 7.68884C4.02138 8.66517 4.46816 8.7493 4.46816 8.7493C4.5276 9.06509 4.31098 9.08436 4.17191 9.09674C4.09315 9.10374 4.03927 9.10854 4.0745 9.16374C4.16121 9.29956 4.35483 9.37637 4.56004 9.45777C4.68314 9.5066 4.81041 9.55709 4.92127 9.62296C5.38367 9.89772 5.60279 10.1313 5.60279 10.1313L6.18777 10.2395L5.16518 9.55049L5.45929 9.58201C5.45929 9.58201 6.22094 10.0535 6.82128 10.1555C7.04837 10.1942 7.18002 10.9823 7.18002 10.9823C7.34993 10.7307 7.54526 10.523 7.75753 10.3447C7.88528 10.2374 7.7965 10.0513 7.7111 9.87223C7.62499 9.69168 7.54232 9.51834 7.68854 9.44033C7.96249 9.29418 8.11398 9.39722 8.26038 9.49681C8.41022 9.59872 8.55474 9.69702 8.81975 9.52088L9.58714 9.6752C9.58714 9.6752 10.2318 10.0138 10.5807 10.0051L10.7596 9.81075ZM11.1451 9.16234L11.1982 9.61764L11.527 9.7062L11.9341 10.3244C11.9341 10.3244 10.8059 10.9656 10.9335 11.1432C11.0043 11.2416 10.7706 11.3912 10.5919 11.5056C10.4486 11.5974 10.3406 11.6665 10.4534 11.6684C10.6026 11.6709 10.6576 11.788 10.7125 11.9051C10.7509 11.9869 10.7893 12.0687 10.8598 12.1114C11.1211 12.2696 11.7455 12.347 11.7455 12.347L12.0014 12.7196C11.9792 12.9481 12.1134 12.9111 12.308 12.8575C12.4727 12.8121 12.6806 12.7548 12.8738 12.8362C13.1858 12.9677 13.9301 13.0377 14.0363 12.7022L14.326 11.7869C14.4598 11.3643 15.1527 11.5561 15.114 11.8371C15.1762 12.0857 15.2915 12.1557 15.4109 12.2281C15.5065 12.2861 15.6046 12.3456 15.6801 12.4995C15.7473 12.6364 15.8069 12.7985 15.8605 12.9444C15.9883 13.292 16.0822 13.5474 16.1644 13.1501C16.2128 12.916 16.4482 12.2042 16.4482 12.2042L16.5468 11.4064C16.5468 11.4064 16.7563 10.3857 16.7037 9.91848C16.6269 9.23752 16.4143 8.23354 16.4143 8.23354L15.7531 8.366C15.7531 8.366 15.4824 7.88982 15.1757 7.87034C15.0038 7.85938 14.8081 8.23327 14.8081 8.23327L14.9062 7.35841C14.9062 7.35841 14.4383 7.27602 14.235 7.36948C14.048 7.45619 13.8246 7.83224 13.8246 7.83224C13.8246 7.83224 13.4384 7.73965 13.3099 7.85352C13.1558 7.99024 13.2102 8.4632 13.2102 8.4632C13.2102 8.4632 12.7889 8.50835 12.5647 8.43933L11.1451 9.16234ZM7.73991 3.46566L7.4504 3.91406L8.00249 3.74997L8.89456 3.61458L10.1941 3.33098L8.69157 3.14121L7.73991 3.46566ZM7.7991 11.876L7.44468 11.2068L7.18473 11.411L6.57178 11.1484L7.31711 11.7048L7.7991 11.876ZM12.2377 6.79528L12.1926 6.49794L12.7187 6.26447L12.2377 6.79528ZM10.2222 3.91366L10.485 3.93057L10.6347 3.60519L10.203 3.68566L10.2222 3.91366ZM11.4832 14.1832L11.9057 14.0779L12.0221 13.346C11.9278 13.3764 11.8555 13.3117 11.7832 13.247C11.6386 13.1177 11.4941 12.9884 11.1731 13.6193C11.1731 13.6193 11.0276 13.9038 11.0342 14.0566C11.0415 14.2245 11.2282 14.5219 11.2282 14.5219L11.4832 14.1832Z" fill="currentColor"/>
</svg>
