<svg viewBox="-2 -2 24 24" xmlns="http://www.w3.org/2000/svg">
<path d="M5 6L3.0598e-07 6L0 3L5 3L5 6Z" fill="currentColor"/>
<path d="M5 11L3.0598e-07 11L0 8L5 8L5 11Z" fill="currentColor"/>
<path d="M5 16L3.0598e-07 16L0 13L5 13L5 16Z" fill="currentColor"/>
<path d="M12 6L7 6L7 3L12 3L12 6Z" fill="currentColor"/>
<path d="M12 11L7 11L7 8L12 8L12 11Z" fill="currentColor"/>
<path d="M12 16L7 16L7 13L12 13L12 16Z" fill="currentColor"/>
<path d="M19 6L14 6L14 3L19 3L19 6Z" fill="currentColor"/>
<path d="M19 11L14 11L14 8L19 8L19 11Z" fill="currentColor"/>
<path d="M19 16L14 16L14 13L19 13L19 16Z" fill="currentColor"/>
</svg>
