<svg width="24" height="24" viewBox="-2 -2 24 24" fill="none" xmlns="http://www.w3.org/2000/svg">
<path d="M7.66157 1L6.38172 1.76117L4.51874 1.31307L4.09981 4.03691C4.09981 4.03691 1.10755 6.07725 1 10.6373C0.99983 15.1936 4.6935 18.8876 9.24965 18.887C13.5242 18.8336 15.6582 16.025 15.6582 16.025L17.9939 15.1779L18.1136 13.6925L18.6138 12.0934L17.4998 10.654C17.4992 10.6676 17.4958 10.6801 17.4952 10.6943C17.4953 10.6756 17.4986 10.6563 17.4986 10.6376C17.4963 8.87246 16.9312 7.23628 15.9794 5.89123C15.9918 5.90599 16.0054 5.91957 16.0178 5.93432L16.1144 3.66772L14.5998 3.04006L13.6376 1.90298L11.2452 2.57665L9.69995 2.41093L7.66157 1Z" stroke="white" stroke-width="1.49999" stroke-linecap="round" stroke-linejoin="round"/>
<path fill-rule="evenodd" clip-rule="evenodd" d="M9.18836 4.80273C9.14339 4.80271 9.09887 4.81152 9.05732 4.82871C9.01577 4.8459 8.97801 4.87113 8.9462 4.90291C8.91439 4.9347 8.88915 4.97243 8.87193 5.01397C8.85471 5.0555 8.84583 5.10001 8.84582 5.14497C8.84583 5.18994 8.85469 5.2345 8.87191 5.27605C8.88913 5.31759 8.91437 5.35531 8.94618 5.3871C8.97799 5.41889 9.01575 5.44411 9.0573 5.4613C9.09886 5.47849 9.14339 5.48737 9.18836 5.48735C9.27914 5.48732 9.3662 5.45123 9.43039 5.38703C9.49458 5.32284 9.53064 5.23575 9.53065 5.14497C9.53062 5.0542 9.49456 4.96717 9.43037 4.90298C9.36618 4.8388 9.27913 4.80276 9.18836 4.80273ZM8.903 6.1721C8.79057 6.17208 8.67923 6.19421 8.57535 6.23722C8.47147 6.28024 8.37709 6.34332 8.29758 6.42282C8.21808 6.50232 8.15502 6.59668 8.112 6.70056C8.06898 6.80444 8.04686 6.91582 8.04688 7.02825C8.04689 7.14066 8.06905 7.25195 8.11208 7.3558C8.15511 7.45965 8.21818 7.554 8.29768 7.63347C8.37718 7.71294 8.47156 7.776 8.57542 7.819C8.67928 7.862 8.79059 7.88407 8.903 7.88405C8.97673 7.88366 9.0501 7.87374 9.12128 7.85454C9.15345 7.69871 9.22841 7.55494 9.33775 7.43935C9.4471 7.32376 9.58649 7.24096 9.74029 7.2002C9.75225 7.14361 9.75846 7.08595 9.7588 7.02811C9.75881 6.91571 9.73668 6.80442 9.69368 6.70056C9.65068 6.59671 9.58764 6.50231 9.50817 6.42282C9.4287 6.34333 9.33434 6.28032 9.2305 6.23729C9.12666 6.19426 9.01536 6.17205 8.90295 6.17203L8.903 6.1721ZM3.79713 6.38146C2.96408 7.46457 2.47042 8.77015 2.37842 10.1335C2.76139 10.4567 3.24616 10.6343 3.7473 10.6351C3.75347 10.6351 3.75964 10.6351 3.76581 10.6351C3.7481 10.7254 3.739 10.8172 3.73862 10.9092C3.73864 11.2951 3.89194 11.6652 4.16481 11.938C4.43768 12.2109 4.80777 12.3642 5.19366 12.3643C5.3904 12.3642 5.58509 12.3243 5.76595 12.2468C5.94681 12.1694 6.11009 12.0561 6.24592 11.9137C6.15733 11.8336 6.0865 11.7358 6.03796 11.6267C5.98943 11.5176 5.96427 11.3995 5.96411 11.28C5.96425 11.0956 6.02396 10.9161 6.13436 10.7683C6.24475 10.6206 6.39992 10.5124 6.57676 10.46C6.50433 10.2378 6.37945 10.0364 6.2127 9.8727C6.04595 9.70901 5.84224 9.58784 5.61877 9.51952C5.78678 9.20887 5.8748 8.86128 5.87492 8.50812C5.87413 8.15019 5.78306 7.79825 5.61013 7.48487C5.61403 7.48509 5.61792 7.4853 5.62182 7.48542C5.73531 7.48541 5.84415 7.44027 5.9244 7.36003C6.00465 7.27978 6.04973 7.17097 6.04975 7.05749C6.04975 6.94399 6.00467 6.83514 5.92442 6.75488C5.84417 6.67462 5.73532 6.62949 5.62182 6.62948C5.52497 6.62959 5.43101 6.66259 5.35532 6.72301C5.27962 6.78343 5.22665 6.86774 5.20508 6.96216C4.82335 6.60176 4.32185 6.39519 3.79703 6.38222L3.79713 6.38146ZM14.07 6.54413C14.0275 6.62954 13.9619 6.70139 13.8808 6.75162C13.7996 6.80185 13.7061 6.82849 13.6106 6.82852C13.5755 6.82832 13.5405 6.8245 13.5062 6.81716C13.426 6.9284 13.3828 7.06199 13.3824 7.19909C13.3824 7.28527 13.3994 7.3706 13.4323 7.45023C13.4653 7.52985 13.5136 7.60217 13.5745 7.66312C13.6355 7.72407 13.7078 7.77243 13.7874 7.80542C13.867 7.83841 13.9524 7.85543 14.0385 7.85544C14.1247 7.85546 14.2101 7.83847 14.2897 7.80549C14.3694 7.77251 14.4417 7.72414 14.5027 7.66319C14.5636 7.60224 14.612 7.52994 14.645 7.4503C14.6779 7.37066 14.6949 7.28529 14.6949 7.19909C14.6948 7.03056 14.6298 6.86851 14.5135 6.74656C14.3972 6.62461 14.2384 6.55205 14.07 6.54399V6.54413ZM3.41008 8.47569C3.47803 8.47584 3.54396 8.49886 3.59724 8.54102C3.65053 8.58319 3.68807 8.64202 3.70383 8.70813C3.75856 8.64775 3.8253 8.59946 3.89978 8.56638C3.97426 8.5333 4.05483 8.51615 4.13633 8.51601C4.21319 8.51599 4.2893 8.53116 4.36031 8.56056C4.43133 8.58996 4.49585 8.63306 4.5502 8.68741C4.60455 8.74176 4.64765 8.80629 4.67706 8.8773C4.70646 8.94832 4.72158 9.02442 4.72156 9.10128C4.72155 9.17812 4.7064 9.25421 4.67698 9.32519C4.64756 9.39617 4.60445 9.46063 4.5501 9.51495C4.49576 9.56927 4.43124 9.61234 4.36025 9.64173C4.28925 9.67111 4.21316 9.68623 4.13633 9.6862C3.9812 9.68617 3.83243 9.62457 3.72273 9.51488C3.61304 9.40518 3.5514 9.25641 3.55137 9.10128C3.55139 9.08229 3.55233 9.0633 3.5542 9.0444C3.50999 9.0685 3.46048 9.08114 3.41013 9.08126C3.37039 9.08126 3.33103 9.07347 3.29431 9.05826C3.25759 9.04305 3.22423 9.02075 3.19613 8.99265C3.16802 8.96455 3.14573 8.9312 3.13052 8.89449C3.11531 8.85777 3.10748 8.81839 3.10747 8.77865C3.10747 8.7389 3.11529 8.69961 3.1305 8.66289C3.14571 8.62616 3.168 8.59275 3.19611 8.56465C3.22421 8.53654 3.25758 8.51425 3.2943 8.49904C3.33102 8.48383 3.37038 8.47604 3.41013 8.47604L3.41008 8.47569ZM3.32926 12.3089C3.08024 12.3095 2.83815 12.391 2.63937 12.541C2.85372 13.2664 3.18559 13.9518 3.62177 14.5698C3.86726 14.5053 4.08451 14.3613 4.23964 14.1604C4.39477 13.9595 4.47906 13.7128 4.47937 13.459C4.47939 13.308 4.44965 13.1584 4.39185 13.0189C4.33406 12.8793 4.24934 12.7525 4.14254 12.6457C4.03574 12.5389 3.90895 12.4542 3.76941 12.3964C3.62986 12.3386 3.4803 12.3089 3.32926 12.3089ZM6.33514 13.1909C6.22271 13.1909 6.11138 13.213 6.0075 13.256C5.90362 13.299 5.80923 13.3621 5.72972 13.4416C5.65022 13.5211 5.58716 13.6155 5.54414 13.7194C5.50113 13.8233 5.479 13.9346 5.47902 14.047C5.47905 14.2632 5.56089 14.4714 5.7081 14.6297C5.85531 14.7881 6.05698 14.8849 6.2726 14.9006C6.34702 14.7079 6.46998 14.5378 6.62955 14.4066C6.78911 14.2754 6.97988 14.1878 7.18333 14.1521C7.18801 14.1173 7.19055 14.0822 7.19093 14.047C7.19095 13.9346 7.16883 13.8233 7.12583 13.7195C7.08283 13.6156 7.01979 13.5212 6.94032 13.4417C6.86085 13.3622 6.7665 13.2992 6.66265 13.2561C6.5588 13.2131 6.4475 13.1909 6.33509 13.1909H6.33514ZM8.78881 14.5318C8.71656 14.5319 8.64549 14.5502 8.58222 14.5851C8.51895 14.6199 8.46554 14.6703 8.42697 14.7314C8.53274 14.9135 8.58865 15.1202 8.58908 15.3308C8.58901 15.3332 8.58892 15.3357 8.58883 15.3382C8.65043 15.3709 8.71908 15.388 8.78881 15.3881C8.9023 15.3881 9.01114 15.343 9.09139 15.2627C9.17164 15.1825 9.21672 15.0737 9.21674 14.9602C9.21676 14.904 9.20571 14.8483 9.18421 14.7964C9.16272 14.7444 9.1312 14.6972 9.09147 14.6575C9.05173 14.6177 9.00454 14.5862 8.95261 14.5647C8.90069 14.5432 8.84503 14.5321 8.78881 14.5321V14.5318Z" fill="white"/>
</svg>
