<svg width="24" height="24" viewBox="-2 -2 24 24" fill="none" xmlns="http://www.w3.org/2000/svg">
<path fill-rule="evenodd" clip-rule="evenodd" d="M8.97367 0.460459C8.38075 1.07443 8.38082 2.06989 8.97373 2.68386C9.56664 3.29782 10.5278 3.29776 11.1208 2.68379C11.7137 2.06982 11.7138 1.07446 11.1209 0.460492C10.5279 -0.153475 9.56658 -0.153508 8.97367 0.460459ZM15.0073 2.64674C14.4144 3.26071 14.4145 4.25617 15.0074 4.87014C15.6003 5.4841 16.5615 5.48404 17.1544 4.87007C17.7474 4.2561 17.7475 3.26074 17.1545 2.64677C16.5616 2.0328 15.6003 2.03277 15.0073 2.64674ZM10.7004 9.96518C10.7004 10.3877 10.3696 10.7303 9.96153 10.7303C9.55348 10.7303 9.22264 10.3877 9.22264 9.96518C9.22264 9.54264 9.55348 9.20015 9.96153 9.20015C10.3696 9.20015 10.7004 9.54264 10.7004 9.96518ZM17.4082 8.80615C16.8153 9.42012 16.8153 10.4156 17.4082 11.0296C18.0011 11.6435 18.9624 11.6434 19.5553 11.0295C20.1482 10.4155 20.1483 9.42018 19.5553 8.80622C18.9624 8.19225 18.0011 8.19218 17.4082 8.80615ZM0.444654 11.0835C-0.14826 10.4696 -0.148197 9.47424 0.444717 8.86027C1.03763 8.2463 1.99886 8.2462 2.59178 8.86017C3.18469 9.47414 3.18472 10.4696 2.59181 11.0836C1.9989 11.6976 1.03757 11.6975 0.444654 11.0835ZM8.98408 17.3162C8.39116 17.9302 8.39107 18.9255 8.98398 19.5395C9.5769 20.1535 10.5383 20.1535 11.1312 19.5395C11.7241 18.9256 11.724 17.9301 11.1311 17.3161C10.5382 16.7022 9.57699 16.7022 8.98408 17.3162ZM2.84546 16.8124C2.25255 16.1984 2.25249 15.2029 2.8454 14.589C3.43831 13.975 4.39967 13.975 4.99259 14.589C5.5855 15.203 5.58553 16.1985 4.99262 16.8124C4.39971 17.4264 3.43838 17.4263 2.84546 16.8124ZM15.0697 14.6868C14.4767 15.3008 14.4768 16.2963 15.0697 16.9103C15.6626 17.5242 16.6238 17.5241 17.2168 16.9102C17.8097 16.2962 17.8097 15.3009 17.2168 14.6869C16.6239 14.0729 15.6626 14.0729 15.0697 14.6868ZM2.88802 4.87833C2.29511 4.26436 2.29504 3.26889 2.88796 2.65493C3.48087 2.04096 4.44223 2.04099 5.03514 2.65496C5.62806 3.26893 5.62809 4.26442 5.03518 4.87839C4.44226 5.49236 3.48093 5.49229 2.88802 4.87833ZM6.12314 10.7781C6.53119 10.7781 6.86184 10.4357 6.86184 10.0131C6.86184 9.59057 6.53119 9.248 6.12314 9.248C5.71509 9.248 5.38425 9.59057 5.38425 10.0131C5.38425 10.4357 5.71509 10.7781 6.12314 10.7781ZM10.5523 6.28541C10.5523 6.70795 10.2217 7.05044 9.81362 7.05044C9.40557 7.05044 9.07474 6.70795 9.07474 6.28541C9.07474 5.86287 9.40557 5.52029 9.81362 5.52029C10.2217 5.52029 10.5523 5.86287 10.5523 6.28541ZM13.6525 11.1006C14.0606 11.1006 14.3914 10.758 14.3914 10.3354C14.3914 9.91291 14.0606 9.57042 13.6525 9.57042C13.2445 9.57042 12.9136 9.91291 12.9136 10.3354C12.9136 10.758 13.2445 11.1006 13.6525 11.1006ZM10.7004 14.0175C10.7004 14.44 10.3696 14.7825 9.96153 14.7825C9.55348 14.7825 9.22264 14.44 9.22264 14.0175C9.22264 13.5949 9.55348 13.2524 9.96153 13.2524C10.3696 13.2524 10.7004 13.5949 10.7004 14.0175ZM7.15695 13.5323C7.565 13.5323 7.89583 13.1898 7.89583 12.7673C7.89583 12.3447 7.565 12.0022 7.15695 12.0022C6.7489 12.0022 6.41807 12.3447 6.41807 12.7673C6.41807 13.1898 6.7489 13.5323 7.15695 13.5323ZM7.89583 7.41496C7.89583 7.8375 7.565 8.17998 7.15695 8.17998C6.7489 8.17998 6.41807 7.8375 6.41807 7.41496C6.41807 6.99242 6.7489 6.64984 7.15695 6.64984C7.565 6.64984 7.89583 6.99242 7.89583 7.41496ZM12.6196 8.31935C13.0276 8.31935 13.3585 7.97678 13.3585 7.55424C13.3585 7.1317 13.0276 6.78921 12.6196 6.78921C12.2115 6.78921 11.8809 7.1317 11.8809 7.55424C11.8809 7.97678 12.2115 8.31935 12.6196 8.31935ZM13.0628 12.7673C13.0628 13.1898 12.732 13.5323 12.3239 13.5323C11.9159 13.5323 11.5851 13.1898 11.5851 12.7673C11.5851 12.3447 11.9159 12.0022 12.3239 12.0022C12.732 12.0022 13.0628 12.3447 13.0628 12.7673Z" fill="white"/>
</svg>
