<svg width="24" height="24" viewBox="-2 -2 24 24" fill="none" xmlns="http://www.w3.org/2000/svg">
<path fill-rule="evenodd" clip-rule="evenodd" d="M10.005 2.00045L10.0078 2.0001L10.001 2L10.005 2.00045ZM10.005 2.00045L8.93482 2.1312L8.68792 2.28668L8.67253 3.39014H8.63835L8.61668 3.57003H9.08306L9.09222 4.08526L9.36661 4.12466L9.40602 4.34112L9.50363 4.3199L9.61328 4.41742L9.8862 4.43378L9.87991 4.46896L9.87369 4.58477L10.6967 4.59084L10.6785 4.48417L10.8339 4.49326L11.0015 4.1457L11.0747 4.05121L11.2088 4.02999L11.2362 4.12751L11.6234 4.15479L11.6599 4.2402L12.0349 4.24627L12.059 4.20383L12.181 4.15534L12.2392 4.02121L12.1202 3.99393L12.114 3.88422L12.2299 3.82603L12.1991 3.66746L12.2573 3.64625L12.2813 3.46337H12.1655L12.1929 3.08534L12.0374 3.10656L12.0495 2.60365L12.0677 2.37193L11.9489 2.21343L10.005 2.00045ZM11.6996 2.43033C11.6649 2.40892 11.6275 2.39791 11.5899 2.39791L11.8765 2.82396C11.8765 2.76801 11.8691 2.7126 11.8547 2.66091C11.8403 2.60922 11.8192 2.56225 11.7926 2.52269C11.766 2.48312 11.7344 2.45174 11.6996 2.43033ZM14.9153 11.9634C14.8719 11.9636 14.8416 11.9738 14.8119 11.9837C14.7792 11.9947 14.7471 12.0054 14.6989 12.0022C14.6795 12.0063 14.6599 12.0093 14.6403 12.0122L14.6117 12.0167L14.5746 12.2754L14.4619 12.2208L14.3429 12.1681V12.2905L14.189 12.3208L13.9778 12.3038L13.7946 12.2978C13.9686 12.5881 13.9985 12.8786 13.9945 13.2131C13.8904 13.3539 13.8169 13.2258 13.7835 13.1376C13.7767 13.1218 13.7695 13.1066 13.7618 13.0909L13.4294 13.0715L13.3055 13.0093L13.025 13.1556L12.9457 13.0336L12.5921 13.064L12.4534 13.208C12.5789 13.4601 12.7118 13.664 13.0006 13.8551C13.4507 13.9462 13.9124 13.9097 14.3311 13.7578C14.3542 13.7495 14.3784 13.741 14.4032 13.7322L14.4036 13.7321L14.4036 13.732C14.6461 13.6465 14.9601 13.5357 15.0652 13.3036L15.071 13.2908C15.1617 13.0906 15.2466 12.9029 15.2222 12.668L15.2207 12.6561C15.1913 12.4268 15.1603 12.1847 15.0195 11.9936C14.9867 11.9693 14.9521 11.9609 14.9163 11.9609L14.9153 11.9634ZM13.6214 12.1971C13.5616 12.2113 13.5185 12.2287 13.4754 12.2462L13.4754 12.2462C13.4324 12.2635 13.3895 12.2809 13.3298 12.2951L13.2813 12.3467L13.4198 12.4852L13.5276 12.317L13.6335 12.3049C13.6397 12.2582 13.6397 12.2184 13.6214 12.1971V12.1971ZM4.61921 13.312L4.61264 13.3121C4.58813 13.3123 4.56242 13.3126 4.53716 13.3187C4.31364 13.3187 4.08786 13.3315 3.87251 13.3989C3.40962 13.495 2.95895 13.6406 2.51078 13.79L2.20597 14.2411L2.18289 15.1682C2.21699 15.3549 2.27485 15.5364 2.3327 15.718C2.36741 15.8269 2.40211 15.9358 2.43167 16.0458L3.05962 16.5762L3.99496 16.4796C4.3178 16.359 4.63912 16.2344 4.96043 16.1099L4.96064 16.1098L4.96084 16.1097L4.96105 16.1096L4.96126 16.1096L4.96147 16.1095L4.96167 16.1094L4.96188 16.1093L4.96209 16.1092L4.9623 16.1092L4.9625 16.1091L4.96271 16.109L4.96292 16.1089L4.96312 16.1088L4.96333 16.1088L4.96354 16.1087L4.96364 16.1086L4.96374 16.1086L4.96385 16.1086L4.96395 16.1085L4.96405 16.1085L4.96416 16.1084L4.96426 16.1084L4.96436 16.1084L4.96447 16.1083L4.96457 16.1083L4.96467 16.1082L4.96477 16.1082L4.96488 16.1082L4.96498 16.1081L4.96508 16.1081L4.96519 16.108L4.96529 16.108L4.96539 16.108L4.9655 16.1079L4.9656 16.1079L4.9657 16.1078L4.9658 16.1078C5.16149 16.0319 5.35717 15.9561 5.5532 15.8811L5.7422 15.2288C5.71653 15.0013 5.69118 14.7738 5.66582 14.5463L5.62632 14.1923C5.58848 14.1319 5.55083 14.0715 5.51317 14.011L5.45418 13.9164C5.42053 13.8699 5.39219 13.8192 5.36389 13.7685C5.30558 13.6641 5.24742 13.56 5.14332 13.4941C4.98186 13.4015 4.80847 13.3102 4.61939 13.312L4.61921 13.312ZM2.73038 14.0124L2.70007 14.1547L2.53839 14.2062L2.58167 14.0531L2.73038 14.0124ZM3.10549 14.0124L3.16545 14.1245L2.99731 14.1718L3.03196 14.0252L3.10549 14.0124ZM3.31892 14.4871L3.27751 14.6507L2.98028 14.6846V14.5079L3.31892 14.4871ZM2.66419 14.5107L2.64545 14.6966L2.45981 14.7349L2.48964 14.5512L2.66419 14.5107ZM3.38875 14.5549L3.57768 15.3414C3.57768 15.3414 3.4002 15.2917 3.3491 15.2225C3.27602 15.1237 3.27256 14.9824 3.28203 14.8598C3.29069 14.7525 3.38875 14.5549 3.38875 14.5549V14.5549ZM10.3444 14.5712L9.66762 14.6505L9.05183 14.809L8.32029 15.0162L7.89349 15.2174L7.53377 15.6076C7.53377 15.6076 7.36304 16.1868 7.36915 16.2234C7.37588 16.2598 7.38788 16.8026 7.38788 16.8026L7.47322 17.3635L7.84504 18.0585L8.37549 18.5524L8.70479 18.6559L9.50341 18.4669L10.5886 18.1195L11.4117 17.6317L11.5641 17.3574L11.6921 16.955L11.7225 16.5648L11.637 15.9734L11.3749 15.3515L10.9542 14.8882L10.3446 14.5712L10.3444 14.5712ZM9.12501 15.949C9.12501 15.949 9.17898 16.0525 9.25827 16.1521C9.27346 16.2017 9.28841 16.2494 9.30297 16.2958L9.30297 16.2958L9.30297 16.2958L9.30297 16.2958C9.37177 16.5151 9.43193 16.7069 9.46794 16.9472C9.38634 17.0823 9.26304 17.1683 9.12501 17.1683C8.87916 17.1683 8.67995 16.8954 8.67995 16.5586C8.67995 16.5022 8.68623 16.4473 8.69634 16.3954L8.6436 16.2572L8.74737 16.2366C8.82599 16.0639 8.96586 15.9489 9.12531 15.9489L9.12501 15.949ZM8.52443 16.306L8.52444 16.306L8.19231 16.3974L8.22262 16.5681L8.5427 16.4828L8.52444 16.306L8.52467 16.306H8.52443ZM7.82936 16.5041L7.84475 16.6931L7.70456 16.7174L7.68917 16.5284L7.82936 16.5041ZM8.67989 17.0193L8.74391 17.1778L8.35065 17.2997L8.31118 17.1107L8.32322 17.1016C8.34728 17.0956 8.67989 17.0193 8.67989 17.0193V17.0193ZM7.99703 17.2265L8.04325 17.3912L7.92139 17.4427L7.85432 17.2537L7.9975 17.2264L7.99703 17.2265ZM9.42366 17.5101L9.47281 17.6045L9.35694 17.696C9.35694 17.696 9.22587 17.5619 9.21369 17.5649L9.42395 17.5098L9.42366 17.5101ZM9.06088 17.635L9.14933 17.7387L8.74086 17.8637L8.65241 17.7692L8.67073 17.7782L9.06088 17.635V17.635ZM8.2958 17.8728L8.36287 17.9917L8.26232 18.022L8.19214 17.9031L8.2958 17.8728ZM9.09984 17.0798C9.21358 17.0798 9.31533 17.0088 9.38269 16.8974C9.35301 16.6993 9.30341 16.5412 9.24673 16.3604L9.24672 16.3604L9.24671 16.3604L9.2467 16.3604C9.23465 16.322 9.22229 16.2825 9.20973 16.2415C9.1441 16.1593 9.09984 16.0739 9.09984 16.0739C8.897 16.0739 8.73272 16.2991 8.73272 16.5768C8.73272 16.8546 8.897 17.0798 9.09984 17.0798ZM18.5241 12.3423C18.3542 12.3423 18.2383 12.3872 18.0849 12.4467C18.0427 12.463 17.9977 12.4805 17.948 12.4984L17.8667 12.6068L17.802 13.3267L17.8688 13.5595L17.8991 13.5456C17.8688 13.3708 17.8765 13.2891 17.8991 13.1197C17.9362 13.0055 17.9636 12.9424 18.0257 12.821C18.1849 12.9216 18.4242 13.1203 18.5253 13.2932C18.7989 13.736 18.9497 14.2209 18.6784 14.6809L18.662 14.6746C18.4341 14.5875 18.3449 14.5534 18.2169 14.3503L17.934 14.3564L17.3736 14.2443L16.9856 13.3692C16.9856 13.3692 16.8873 13.3407 16.7908 13.3116C16.5724 13.6073 16.5637 13.8306 16.7179 14.2354C16.8425 14.632 17.129 14.9826 17.5109 15.1551C18.493 15.3531 19.8808 14.9559 19.9997 13.7328C20.0084 12.8953 19.3491 12.3396 18.5224 12.344L18.5241 12.3423ZM18.5599 13.7014C18.5165 13.5642 18.3313 13.335 18.3313 13.335L18.2497 13.3822L18.0471 13.6366L17.9048 13.7012L17.7281 13.3391L17.7928 12.6192L18.0514 12.2743L18.6852 12.2397L18.9309 12.05L17.6763 11.869L17.2969 12.1018L17.0642 12.0545L16.7667 12.9727L16.8009 13.0115C16.8009 13.0115 16.7406 13.1453 16.7147 13.1537C16.6889 13.1623 17.094 13.2788 17.094 13.2788L17.4648 14.1194L17.8657 14.2617L18.646 14.2489C18.646 14.2489 18.6156 13.8784 18.5599 13.7014ZM10.7783 5.17182L11.0405 5.37912L11.827 5.36093L11.9855 5.25728C11.9855 5.25728 12.0786 5.0855 12.0952 4.97379C12.1077 4.887 12.0889 4.68879 12.0798 4.6537C12.0307 4.48907 11.8451 4.3976 11.8451 4.3976L11.3817 4.30008L11.0586 4.31221L10.9062 4.60485L10.7904 4.84263L10.7783 5.17182ZM13.2008 12.4337L13.2799 12.3956L13.4393 12.5645L13.5471 12.3963L13.7324 12.3745L13.8488 12.6461L13.8667 13.0169L13.4269 12.9908L13.3071 12.8841L13.2133 12.7072L13.2008 12.4337ZM10.682 14.5466L11.1476 14.7535L11.3717 15.1932L11.4059 15.038L11.656 14.8225L11.6382 13.443L11.1898 13.4345L11.1123 13.538L11.1555 13.7708L10.1296 13.4345L9.89671 13.0379L9.78465 12.9345L9.73749 12.193L9.20286 12.199L9.19417 12.725L8.9226 12.8371L8.91397 13.1432C8.91397 13.1432 8.875 13.501 8.88366 13.5225C8.89232 13.5443 8.69825 13.6907 8.69825 13.6907L8.72427 14.0183L8.93552 14.1217L8.88396 14.3158L9.50045 14.4321L10.0868 14.3028L10.5437 14.1174L10.682 14.5466ZM4.28147 11.9427L3.89819 12.0847L4.77333 13.2186L5.24758 13.4212L5.69587 14.0463L5.7778 13.8566L4.28258 11.9433L4.3828 12.0028L4.44688 11.9236L4.51089 11.8963L4.6236 12.0243L4.82486 12.0334L4.93152 11.8109L4.57185 11.8718L4.42855 11.7255L4.3734 11.4664L4.16614 11.3749L4.00757 11.5273L3.68138 11.5455L3.45586 11.6309L3.4168 11.9416L3.57226 12.097L3.67292 12.1243C3.67292 12.1243 3.71528 12.0788 3.73048 12.0788C3.74588 12.0788 3.82803 12.0485 3.82803 12.0485L4.20297 11.8961L4.28147 11.9427ZM3.3683 11.8267L3.38997 11.6112L3.60128 11.5034L1.70869 10.9774L1.60098 11.305L3.3683 11.8267ZM2.59911 12.2677L2.79726 12.4659L2.99841 12.8774L3.14777 12.5482L3.09926 11.9568L3.00787 11.777L1.57819 11.3502L1.52305 11.3199L1.66629 10.951L1.8248 10.8809L1.64797 10.8961L1.66629 10.6065L1.63211 10.4053L1.21448 10.4265L1.2328 10.646L1.19045 10.6733L1.22986 11.1793L0.99823 11.3561L1.00739 11.3955L0.842711 11.5235L0.894277 11.6912L1.0253 11.7458L1.0162 11.9805L1.47647 12.0017L2.40318 11.8036L2.55864 12.023L2.6048 12.2273L2.59911 12.2677ZM3.36323 15.1467C3.39676 15.1919 3.51317 15.2247 3.51317 15.2247L3.38942 14.709C3.38942 14.709 3.32573 14.8385 3.31947 14.9089C3.31293 14.9892 3.3156 15.0819 3.36323 15.1467ZM1.44442 12.2654L2.40131 12.2044C2.44547 12.2575 2.4905 12.3098 2.53552 12.3622L2.53553 12.3622L2.53553 12.3622L2.53554 12.3622L2.53555 12.3622L2.53556 12.3622L2.53556 12.3622L2.53557 12.3622L2.53558 12.3622L2.53558 12.3622L2.53559 12.3622L2.5356 12.3622L2.53561 12.3623L2.53561 12.3623L2.53562 12.3623L2.53563 12.3623L2.53563 12.3623L2.53564 12.3623L2.53565 12.3623L2.53566 12.3623L2.53566 12.3623L2.53567 12.3623L2.53568 12.3623L2.53568 12.3623C2.60887 12.4474 2.68206 12.5325 2.75152 12.6206C2.77733 12.6997 2.80631 12.7782 2.83532 12.8569C2.90984 13.0587 2.98457 13.2612 3.00636 13.4759C2.95514 13.5471 2.86598 13.563 2.77562 13.5791C2.71175 13.5905 2.64728 13.602 2.59518 13.6332C2.39869 13.6508 2.23341 13.7478 2.18525 13.9484C2.11563 14.0731 2.06315 14.2078 2.05809 14.3515L2.0114 14.7651C1.72201 14.7983 1.43259 14.8317 1.14319 14.8652L1.14211 14.8653L1.14113 14.8654L1.14014 14.8656L1.13915 14.8657L1.13816 14.8658L1.13712 14.8659L1.13613 14.866L1.13514 14.8661L1.13415 14.8662L1.13315 14.8664L1.13215 14.8665L0.743235 14.9114C0.713794 14.8988 0.682348 14.888 0.650656 14.8772C0.542353 14.8402 0.431173 14.8023 0.387328 14.6847L0.35745 14.643C0.265763 14.5156 0.171495 14.3846 0.150937 14.2249L0.122158 14.119L0.122152 14.119C0.0800149 13.9641 0.0378829 13.8094 0 13.6534C0.00719976 13.5607 0.013277 13.4679 0.0193539 13.3751C0.0287081 13.2322 0.0380615 13.0894 0.0515067 12.9469C0.0809848 12.9038 0.102417 12.8451 0.12459 12.7844C0.171212 12.6568 0.22111 12.5201 0.355966 12.5008C0.454871 12.4766 0.551162 12.4503 0.64642 12.4244C0.909214 12.3527 1.16415 12.2832 1.44442 12.2654ZM9.88889 8.37747L9.81571 9.18834L9.80931 9.28559L10.8275 9.30378L10.9006 8.48073L10.6995 8.37096L10.7848 8.30998L10.6385 8.20026L10.5894 7.35282L10.7663 7.32857L10.876 7.06642H11.2113L11.2175 6.88962L10.6383 6.84718L10.6018 6.40822L10.5652 6.25578L10.7176 6.21941V6.16425L10.6018 6.03623L10.608 5.90816L11.0836 5.87785V5.48163L10.6325 5.48769L10.6508 5.00598H10.73L10.7118 4.69511L9.779 4.67692V4.94512L9.91925 5.00029L9.92548 5.45142L9.4988 5.47568L9.49205 5.85371L9.94944 5.86584L9.95566 5.99992L9.88243 6.21946V6.31698L9.96171 6.43281L9.94967 6.64618H9.02901L9.01075 6.82911L9.63265 6.79879L9.55336 6.95124L9.89482 7.04876L9.91308 8.22544C9.91308 8.22544 9.81549 8.22543 9.79721 8.24362C9.77893 8.26186 9.78523 8.33503 9.78523 8.33503L9.88889 8.37747ZM7.60247 8.937L7.59618 9.46743L7.68158 9.5589L7.46204 10.4125L7.40108 10.5039L6.99872 10.4615L6.76708 10.413L6.47449 10.608L6.48359 10.9398L6.60863 11.2056L7.18795 11.3396L7.3585 11.0775L7.65121 10.9251L8.08406 11.3092L8.24257 10.9921L8.07801 10.5532L7.91333 9.57766L8.12065 9.50452L7.93776 9.11434L7.60247 8.937ZM6.26893 10.8247L4.45827 11.4584L4.57467 11.8206L6.45 11.2731L6.26893 10.8247ZM7.64839 11.1265L7.3208 11.4541L8.81243 13.0363V12.769L9.07543 12.6095L9.02386 12.5233L7.64839 11.1265ZM14.0968 11.3007L14.0979 11.2991L14.0956 11.3006L14.0968 11.3007ZM14.5607 11.3855L14.5655 11.2969L13.5654 11.2799L13.626 12.0559H12.5052L12.0395 11.9007L11.8498 12.4697L10.5737 12.6767L9.88401 12.5042L9.84936 12.1593L9.38275 12.1161L8.72755 10.0813L8.78816 9.71056L10.3918 9.39155L10.547 9.61575L10.1935 9.91749L10.5901 9.92595L10.6677 9.6846L15.7204 9.34831L15.6604 10.2795L15.419 11.7625L14.5309 11.9349L14.5546 11.498L14.5352 11.5811L14.38 11.5338L14.4705 11.8269L14.419 12.0295L14.5483 12.038L14.5267 12.2277L14.3759 12.1199L14.2767 12.1369L14.2944 12.2533L14.1695 12.2836L13.9582 12.2666L13.7556 12.2606L13.7016 12.1925L13.7026 12.1912L13.8459 11.9804L13.8521 11.7648L13.7185 11.4501L14.0159 11.4198L14.0968 11.3007L14.4577 11.3267L14.5607 11.3855ZM13.6925 12.1785L13.7012 12.1894V12.1954L13.6925 12.1785ZM12.1086 12.3044L12.1756 12.0483L12.1759 12.0485L12.5174 12.1888L12.7978 12.2373L12.9563 12.0726L13.188 12.1217L13.249 12.329L13.06 12.4205L13.1023 12.7802L13.2609 12.957L13.0293 13.0911L12.95 12.9692L12.5476 13.0116L12.3891 13.1762L12.0904 12.9263L12.2244 12.7433L12.2427 12.4751L12.1086 12.3044ZM17.0807 11.6241L18.3376 11.8383C18.3376 11.8383 18.7394 11.9477 18.9498 11.6917C18.9498 11.4387 18.6997 11.3209 18.6997 11.3209L17.8832 11.1986L18.0423 11.085L17.4337 10.9774L16.779 11.0637L16.516 11.0722L16.4986 11.4558L17.0807 11.6241ZM4.4877 6.61294L3.56099 6.59477V5.07673H4.58531L4.62184 6.5887L4.4877 6.61294ZM9.47896 8.32642L9.06508 7.57636L9.13409 7.52907L8.67711 7.0678V6.95567L8.79351 6.94292L8.71587 6.88231L8.67693 6.88838L8.6471 6.52628L8.71599 6.50929L8.69866 6.41442L8.62971 6.28077L8.54772 6.29353L8.47877 6.42717L8.46533 6.50913L8.54291 6.5352L8.52124 6.893H8.43073L8.42445 6.92754L8.49346 6.96633L8.46362 7.01783L8.36877 7.00938V6.9447L8.34275 6.9229L8.32114 6.81513L8.29512 6.79814V6.72917H8.18729L8.17866 6.84985H8.12715L8.11365 6.9361L8.06214 6.94216L8.07077 7.06284L7.85094 7.05009L7.88554 7.31309L8.03642 7.35186L8.08792 7.65797L8.11823 8.12352L8.11194 8.3132L9.47896 8.32642ZM17.3846 11.7411L17.1772 11.6802L16.4396 11.4979L16.4458 11.0406L17.4274 10.9126L18.092 10.9429L17.781 10.8088L17.3848 10.6442L17.1347 10.4735L16.8482 10.4856L16.8665 10.3088L16.0678 10.3452L16.0918 11.6132L16.2199 11.7474L16.2261 12.034L16.592 12.0521L16.6285 11.9119L16.8419 11.924C16.8419 11.924 17.1776 11.857 17.2017 11.857C17.226 11.857 17.3846 11.7411 17.3846 11.7411ZM18.1869 11.0012L18.2264 10.7421L18.2326 10.55H18.6106L18.6169 10.7665L18.6779 10.9098L18.6227 11.1293L18.1869 11.0012ZM15.6691 10.8126L15.974 10.8858L15.9771 10.3862L15.7453 10.3341L15.6691 10.8126ZM17.1284 10.2268L15.9823 10.2939L15.8024 10.2146L15.8207 9.80005L16.5981 9.82128C16.5981 9.82128 16.9394 9.74812 16.9517 9.74812C16.9637 9.74812 17.1071 9.82128 17.1071 9.82128L17.1311 10.2145L17.1284 10.2268ZM16.9421 9.39229L16.9359 9.67881L15.8748 9.72809L15.8077 9.04524L15.1006 8.9477L13.9726 8.97802L13.9303 8.21592C13.9303 8.21592 14.918 8.15471 14.9973 8.16077C15.0766 8.16684 15.0704 8.56311 15.0704 8.56311L15.8325 8.72168L15.7166 8.52656L15.9239 8.4534L16.2592 8.64852L16.4483 8.93503L16.0276 9.20936L16.9421 9.39229ZM13.1359 8.94814C13.075 8.94814 12.5019 8.93601 12.5019 8.93601L12.2946 8.86286L12.3129 8.68605L12.2397 7.68012L12.4531 7.68618L12.9165 8.55798L13.142 8.52161L13.3433 8.73502V8.88135L13.1359 8.94814ZM9.60753 8.04852L9.62291 8.20702L9.7123 8.24622L9.72722 8.20683L9.85226 8.1947L9.84597 7.12176L9.68129 7.21013L9.4984 7.30159L9.30641 7.25916L9.26982 7.35668L9.28474 7.46646H9.55907L9.65052 7.56701L9.69286 8.02124L9.60753 8.04852ZM10.6818 7.81883L10.6697 7.39205L10.8587 7.35871L10.9289 7.11486L11.2489 7.12093L11.566 7.58735L11.1361 7.99582L10.6818 7.81883ZM10.5859 9.37092L10.633 9.61665L15.6853 9.29326C15.6853 9.29326 15.694 9.07344 15.6766 9.06913C15.6588 9.06307 15.0774 9.02183 15.0774 9.02183L13.8617 9.0479L13.8555 8.96166L13.4577 8.94651L13.1833 9.01457L12.3369 8.95391L12.1676 8.78431L11.8429 8.43838L10.9552 8.44508L10.9201 9.34968L10.5859 9.37092ZM8.10659 9.3651L9.38263 9.51174L9.68403 9.34775L9.81336 8.49419L8.48564 8.39932L7.64062 8.43387L7.59781 8.77445L6.32177 9.08055L7.52017 9.08901L7.56204 8.90051L7.82204 8.9599L8.01086 9.11131L8.10659 9.3651ZM8.94974 9.53553L8.2364 9.4563L8.19987 9.5782L8.04741 9.62669L8.2243 10.7119L8.3827 11.035L8.10232 11.4557L8.98639 12.3459H9.14484L9.20581 12.0715L9.29114 12.0655L8.65709 10.0352L8.74853 9.60846L8.94974 9.53553ZM7.31226 11.9058L7.84266 12.0765L7.23304 11.4608L6.61719 11.3083L5.73928 11.5522L6.09284 11.6314L6.11117 11.7229L7.00739 12.0034L7.31226 11.9058ZM4.81191 11.2233L4.10467 10.7295L4.09263 10.6259L3.92196 10.4795L3.97106 10.2966L3.90393 10.2296V10.004L4.12952 9.95547L4.05023 7.80334L3.90998 7.61434L3.6235 7.4802L3.60042 7.1932L3.59736 7.19759L3.56705 7.45973L3.87803 7.69752L4.00606 7.91094L4.04236 9.05136L3.25596 8.14296L3.70102 6.66144L4.66426 6.67963L4.85331 6.5638L6.60301 6.49676L8.03574 7.75879L8.01172 8.3623L7.66415 8.35018L7.17645 7.83808L6.30466 7.85627L5.39621 7.88657L5.07308 7.58176L4.79258 7.10625L3.6525 7.11836L3.60852 7.18155L4.72123 7.18756L4.97118 7.66927L5.20893 7.85213L5.22725 7.96189L5.06263 7.96796L5.03855 8.94953L7.28211 9.23605L7.61141 9.60798L7.32481 10.4127L6.77615 10.3091L6.32498 10.6627L4.81191 11.2233ZM5.13669 8.0064L5.14873 8.89037L6.09388 9.0304L6.33773 9.04253L6.42923 8.91451L7.52661 8.76207L7.58757 8.34754L7.22168 8.04878L6.26455 7.95125L5.13669 8.0064ZM9.90574 12.9215L9.91196 12.641L9.94227 12.6411L10.2228 12.7082L10.9056 12.7203L10.8324 12.8117L10.0093 13.0495L9.90574 12.9215Z" fill="white"/>
</svg>
